<svg xmlns="http://www.w3.org/2000/svg" xmlns:v="https://vecta.io/nano" viewBox="0 0 512 512"><path d="M17.856 167.92h476.288L256 8.256z" fill="#25b6d2"></path><circle cx="256" cy="99.808" r="26.304" fill="#fff"></circle><path d="M0 453.856h512v49.888H0z" fill="#25b6d2"></path><path d="M248.752 391.376v-20.448c-11.76-.208-23.92-3.856-31.008-8.912l4.848-13.584c7.296 4.864 17.84 8.704 29.184 8.704 14.384 0 24.112-8.304 24.112-19.856 0-11.152-7.904-18.032-22.896-24.112-20.656-8.096-33.424-17.424-33.424-35.056 0-16.816 11.952-29.584 30.592-32.624V225.04h12.544v19.648c12.16.4 20.464 3.648 26.352 7.104l-5.088 13.376c-4.24-2.432-12.544-6.88-25.52-6.88-15.616 0-21.488 9.328-21.488 17.424 0 10.528 7.504 15.808 25.136 23.104 20.864 8.512 31.408 19.056 31.408 37.088 0 16.016-11.152 31.008-32.016 34.448v21.072h-12.736v-.048z"></path><path d="M52.304 213.936h49.888v193.76H52.304zm77.328 0h49.888v193.76h-49.888zm202.848 0h49.888v193.76H332.48zm77.328 0h49.888v193.76h-49.888z" fill="#32bea6"></path></svg>