<svg xmlns="http://www.w3.org/2000/svg" xmlns:v="https://vecta.io/nano" width="2050" height="2050"><path d="M136.2 1621.8l105.4-178.1 1594.7 9.1 77.5 169H136.2z" fill="#46a1f8"></path><path d="M745.1 1446.6l-503.5-2.9-41.9 70.8c78-5.7 430.6-23.3 629.6 107.3H983c-44.5-46.2-124-117.3-237.9-175.2zm475.6 175.2c219.1-143.8 624.7-108 644.4-106.1l-28.8-62.9-537.5-3.1c-110.7 57.4-188.2 126.7-231.8 172.1z" fill="#3084d6"></path><g fill="#c8c2e9"><path d="M707.1 905.3l-465.5 399.8 783.4 316.7V988.7l-317.9-83.4z"></path><path d="M1342.9 905.3L1025 988.7v633.1l783.4-316.7-465.5-399.8z"></path></g><path d="M1067 977.7l-39.5 10.4-2.5 637.9 130.2-56.9-88.2-591.4zm-62 5.8l20 5.2v633.1l-130.2-52.7L1005 983.5z" opacity=".2" fill="#231f20"></path><path d="M1300.3 699.1c0-152.9-124.7-276.7-277.9-275.3S748 550.5 749.7 702.4a274.2 274.2 0 0 0 70.7 180.9c56.3 62.5 88.2 143.2 88.2 227.4v.5h232.8v-.5a336.4 336.4 0 0 1 87.3-226.4 274.3 274.3 0 0 0 71.6-185.2z" fill="#f4c23f"></path><path d="M907.9 1110.7H1142a0 0 0 0 1 0 0v98.6a117.1 117.1 0 0 1-117 117h0a117.1 117.1 0 0 1-117.1-117.1v-98.6a0 0 0 0 1 0 0z" fill="#4d4c78"></path><path d="M1142.1 1193.5h0v-40h0-234.2v40h234.2z" fill="#323150"></path><path d="M1025 321a20 20 0 0 1-20-20V191a20 20 0 0 1 40 0v110a20 20 0 0 1-20 20zM746 436.6a20.2 20.2 0 0 1-14.2-5.9L654.1 353a20.011 20.011 0 0 1 28.3-28.3l77.7 77.8a20 20 0 0 1-14.1 34.1zm558 0a20.2 20.2 0 0 0 14.2-5.9l77.7-77.7a20.011 20.011 0 0 0-28.3-28.3l-77.7 77.8a20 20 0 0 0 14.1 34.1zm-673.6 279h-110a20 20 0 0 1 0-40h110a20 20 0 0 1 0 40zm899.2 0h-110a20 20 0 0 1 0-40h110a20 20 0 0 1 0 40z" fill="#f8881b"></path><path d="M888.5 1621.8h273v76.21h-273z" fill="#323150"></path><path d="M136.2 1621.8h752.4v76.21H136.2zm1777.6 76.2h-752.4v-76.21h752.4z" fill="#67baeb"></path><g fill="#4d4c78"><path d="M1025,1621.8s-266-364-783.4-316.7l-57.5,162.4s505.9-49.9,704.4,154.3Z"></path><path d="M1025,1621.8s266-364,783.4-316.7l57.5,162.4s-505.9-49.9-704.4,154.3Z"></path></g><path d="M1022.4 423.8c-96 .9-180.2 51.3-228.8 126.6 7.3 214 174.3 387.5 385.6 405.1a330.4 330.4 0 0 1 49.5-71.2 274.3 274.3 0 0 0 71.6-185.2c0-152.9-124.7-276.7-277.9-275.3z" fill="#fad564"></path><rect height="208.31" rx="32.6" transform="matrix(.663926 -.747798 .747798 .663926 -290.7 1421.9)" width="65.1" x="1404" y="930.2" fill="#dfdafd"></rect></svg>