<svg xmlns="http://www.w3.org/2000/svg" xmlns:v="https://vecta.io/nano" viewBox="0 0 511.98 511.98"><path d="M501.33 85.09H10.67A10.7 10.7 0 0 0 0 95.76v127.95c0 5.89 4.78 10.66 10.67 10.66h490.66c5.89 0 10.66-4.77 10.66-10.66V95.76c0-5.89-4.77-10.67-10.66-10.67z" fill="#656d78"></path><path d="M245.34 159.73H0v21.33h245.34c5.89 0 10.66-4.77 10.66-10.65s-4.77-10.67-10.66-10.67z" fill="#434a54"></path><path d="M447.92 159.73c0 11.78-9.55 21.33-21.33 21.33-11.77 0-21.33-9.55-21.33-21.33s9.56-21.33 21.33-21.33c11.78 0 21.33 9.55 21.33 21.33z" fill="#a0d468"></path><path d="M509.48 88.9l-53.72-63.98a10.7 10.7 0 0 0-8.17-3.81H63.73a10.7 10.7 0 0 0-8.2 3.86L2.47 88.95c-2.64 3.17-3.2 7.59-1.45 11.34a10.7 10.7 0 0 0 9.66 6.13h490.66c4.14 0 7.91-2.41 9.66-6.16 1.75-3.77 1.17-8.19-1.5-11.36z" fill="#434a54"></path><path d="M255.99 23.89l251.74 62.91-23.37-27.81-151.48-37.87h-98.22v18.11V61.2v45.22h21.33V66.53l159.59 39.89h85.75.02l1.72-.14-247.07-61.72z" opacity=".2"></path><path d="M430.64 432.67c-1.87-42.67-38.26-138.23-39.81-142.28l-1.22-3.19-8.83-5.84v-13.36l-64.83-19.5-20.41 13.64h-79.11l-20.41-13.64-64.83 19.5v13.36l-8.83 5.84-1.22 3.19c-1.55 4.05-37.94 99.61-39.81 142.28-1.14 26.14 10.83 40.47 21.08 47.87 10.75 7.78 21.61 9.47 22.81 9.63l4.98.69 3.7-3.39a796.9 796.9 0 0 1 28.87-25.09c26.95-22.2 35.11-25.06 36.5-25.41h113.37c1.41.34 9.56 3.2 36.51 25.4 15.25 12.58 28.73 24.97 28.88 25.09l3.7 3.41 4.98-.7c1.2-.16 12.06-1.84 22.81-9.62 10.25-7.41 22.22-21.73 21.08-47.87z" fill="#656d78"></path><circle cx="181.35" cy="319.68" r="21.33" fill="#ccd1d9"></circle><path d="M181.35 351.66a32 32 0 0 1-31.98-31.98 32 32 0 0 1 31.98-31.98c17.64 0 32 14.34 32 31.98s-14.36 31.98-32 31.98zm0-42.65a10.7 10.7 0 0 0-10.66 10.67c0 5.87 4.78 10.65 10.66 10.65 5.89 0 10.67-4.78 10.67-10.65a10.7 10.7 0 0 0-10.67-10.67z" fill="#aab2bc"></path><path d="M309.32 383.64c0 11.78-9.55 21.33-21.33 21.33s-21.33-9.55-21.33-21.33c0-11.77 9.55-21.31 21.33-21.31s21.33 9.55 21.33 21.31z" fill="#ccd1d9"></path><path d="M287.99 415.64c-17.64 0-32-14.36-32-32 0-17.62 14.36-31.98 32-31.98s31.98 14.36 31.98 31.98c0 17.64-14.34 32-31.98 32zm0-42.65c-5.89 0-10.67 4.78-10.67 10.66a10.7 10.7 0 0 0 10.67 10.67c5.88 0 10.66-4.78 10.66-10.67 0-5.87-4.78-10.66-10.66-10.66z" fill="#aab2bc"></path><path d="M338.18 348.54c-4.16 4.17-10.92 4.17-15.08 0-4.17-4.15-4.17-10.9 0-15.08a10.7 10.7 0 0 1 15.08 0 10.7 10.7 0 0 1 0 15.08z" fill="#a0d468"></path><path d="M359.5 327.21c-4.17 4.17-10.92 4.17-15.08 0-4.17-4.15-4.17-10.9 0-15.08a10.7 10.7 0 0 1 15.08 0 10.7 10.7 0 0 1 0 15.08z" fill="#ed5564"></path><path d="M338.18 305.88c-4.16 4.17-10.92 4.17-15.08 0-4.17-4.16-4.17-10.91 0-15.08a10.7 10.7 0 0 1 15.08 0c4.15 4.17 4.17 10.92 0 15.08z" fill="#ffce54"></path><path d="M316.85 327.21c-4.16 4.17-10.92 4.17-15.08 0a10.7 10.7 0 0 1 0-15.08 10.7 10.7 0 0 1 15.08 0c4.17 4.17 4.17 10.92 0 15.08z" fill="#5d9cec"></path><g fill="#ccd1d9"><path d="M213.35 415.64a10.7 10.7 0 0 1-10.67-10.67v-42.64a10.7 10.7 0 0 1 10.67-10.67c5.89 0 10.66 4.78 10.66 10.67v42.64c0 5.89-4.77 10.67-10.66 10.67z"></path><path d="M234.67 394.32h-42.64a10.7 10.7 0 0 1-10.67-10.67c0-5.87 4.78-10.66 10.67-10.66h42.64c5.89 0 10.67 4.78 10.67 10.66a10.7 10.7 0 0 1-10.67 10.67z"></path></g></svg>