<svg xmlns="http://www.w3.org/2000/svg" xmlns:v="https://vecta.io/nano" width="64" height="64"><path d="M17 2h30v60H17z" fill="#f2daae"></path><path d="M47 21h15v41H47z" fill="#e0c494"></path><path d="M51 25h6v6h-6zm0 10h6v6h-6zm0 10h6v6h-6z" fill="#ef941d"></path><path d="M2 21h15v41H2z" fill="#e0c494"></path><path d="M7 25h6v6H7z" fill="#ef941d"></path><path d="M21 23h4v4h-4zm9 0h4v4h-4zm9 0h4v4h-4zm-18 8h4v4h-4zm9 0h4v4h-4zm9 0h4v4h-4zm-18 8h4v4h-4zm9 0h4v4h-4zm9 0h4v4h-4z" fill="#efbc2e"></path><path d="M7 35h6v6H7zm0 10h6v6H7z" fill="#ef941d"></path><path d="M38 11h-4V7h-4v4h-4v4h4v4h4v-4h4z" fill="#42a5b2"></path><g fill="#3a4249"><path d="M28 49h8v13h-8z"></path><path d="M25 48h14v2H25zm17 8h2v2h-2zm0-4h2v2h-2zm0-4h2v2h-2z"></path></g></svg>