<svg xmlns="http://www.w3.org/2000/svg" xmlns:v="https://vecta.io/nano" viewBox="0 0 378.37 378.37"><path d="M186.69 138.37h179.64c.24-1.67.37-3.39.37-5.13 0-20.51-16.62-37.14-37.15-37.14a37 37 0 0 0-15.96 3.59c-.89-19.72-17.15-35.43-37.1-35.43-20.51 0-37.15 16.63-37.15 37.14 0 3.29.44 6.47 1.23 9.5a37 37 0 0 0-17.15-4.2c-18.65 0-34.08 13.75-36.73 31.66z" fill="#dedde0"></path><path d="M256.69 208.37l-97.95 53.43 12.95 116.57h195v-170l-110 60v-60zm40 90h30v30h-30v-30zm-80 30h-30v-30h30v30z" fill="#006c70"></path><path d="M76.69 328.37v-30h15.5v-160H38.35l-26.67 240h80.5v-50z" fill="#00d7df"></path><path d="M145.02 138.37H92.19v160h14.5v30h-14.5v50h79.5L158.73 261.8z" fill="#00a1a7"></path><path d="M207.03 72.94a39.3 39.3 0 0 0-39.28-39.28c-6.04 0-11.77 1.37-16.88 3.81A39.3 39.3 0 0 0 111.64 0a39.3 39.3 0 0 0-37.97 49.33 39.1 39.1 0 0 0-18.14-4.44 39.3 39.3 0 0 0-38.84 33.48h189.96c.25-1.77.39-3.58.39-5.43z" fill="#acabb1"></path><path d="M186.68 298.37h30v30h-30zm110 0h30v30h-30zm-219.99 30h15.5 14.5v-30h-14.5-15.5z" fill="#fff"></path><path d="M145.02 138.37h11.67v-30h-130v30h11.67 53.83z" fill="#565659"></path></svg>