<svg xmlns="http://www.w3.org/2000/svg" xmlns:v="https://vecta.io/nano" viewBox="0 0 512 512"><path d="M384.28 206.66h-61.94l-15.67 6.31-15.84 55.5 15.84 61.8h77.61z" fill="#ffc222"></path><path d="M208.15 185.76l20.9 144.51h77.61v-117.3l-15.67-6.31z" fill="#fedf77"></path><path d="M229.06 185.76l-61.94 20.9-15.68 6.31-15.84 55.5 15.84 61.8h77.62z" fill="#ffc222"></path><path d="M73.83 206.66v123.61h77.61v-117.3l-15.67-6.31z" fill="#fedf77"></path><path d="M322.34 260.06h-31.35v-63.85l15.67 10.45h15.67zm-155.22 0h-31.35v-53.4h15.67l15.68-10.45z" fill="#ff9500"></path><path d="M306.67 83.05h-61.94l-15.67 6.31-15.84 55.5 15.84 61.8h77.61z" fill="#ffc222"></path><path d="M151.44 83.05v123.61h77.62V89.36l-15.68-6.31z" fill="#fedf77"></path><path d="M213.38 83.04h31.35v53.4h-31.35z" fill="#ff9500"></path><path d="M458.11 330.26l-31.35 20.9V99.72H512v31.35h-53.89z" fill="#6f6f6f"></path><path d="M458.11 330.26H229.06l-20.9 21.92 20.9 21.92h229.05z" fill="#027acd"></path><path d="M0 330.27h229.05v43.84H0z" fill="#3eaff5"></path><path d="M64.56 354l-9.8 38.86 9.8 36.1c20.67 0 37.48-16.81 37.48-37.48S85.22 354 64.56 354z" fill="#6f6f6f"></path><path d="M27.08 391.48c0 20.67 16.81 37.48 37.48 37.48V354c-20.66 0-37.48 16.81-37.48 37.48z" fill="#9d9d9d"></path><path d="M64.56 373.59l-9.8 17.89 9.8 17.89a17.9 17.9 0 0 0 17.89-17.89 17.9 17.9 0 0 0-17.89-17.89z" fill="#d4d4d4"></path><path d="M46.67 391.48a17.9 17.9 0 0 0 17.89 17.89v-35.77a17.9 17.9 0 0 0-17.89 17.89z" fill="#ededed"></path><path d="M393.55 354l-9.8 38.86 9.8 36.1c20.67 0 37.48-16.81 37.48-37.48S414.22 354 393.55 354z" fill="#6f6f6f"></path><path d="M356.07 391.48c0 20.67 16.81 37.48 37.48 37.48V354c-20.67 0-37.48 16.81-37.48 37.48z" fill="#9d9d9d"></path><path d="M393.55 373.59l-9.8 17.89 9.8 17.89a17.9 17.9 0 0 0 17.89-17.89 17.9 17.9 0 0 0-17.89-17.89z" fill="#d4d4d4"></path><path d="M375.66 391.48a17.9 17.9 0 0 0 17.89 17.89v-35.77a17.9 17.9 0 0 0-17.89 17.89z" fill="#ededed"></path></svg>