<svg xmlns="http://www.w3.org/2000/svg" xmlns:xlink="http://www.w3.org/1999/xlink" id="Layer_1" x="0px" y="0px" viewBox="0 0 512 512" style="enable-background:new 0 0 512 512;" xml:space="preserve"><g>	<path style="fill:#FFD652;" d="M428.114,24.162c-2.462-1.401-5.489-1.375-7.926,0.073l-134.571,79.901  c-2.392,1.42-3.859,3.997-3.859,6.78v67.285c0,2.783,1.468,5.36,3.859,6.78l134.571,79.901c5.168,3.07,11.911-0.774,11.911-6.78  V31.014C432.099,28.18,430.577,25.564,428.114,24.162C425.652,22.76,430.577,25.564,428.114,24.162z"></path>	<path style="fill:#FFD652;" d="M226.383,104.136L91.812,24.234c-2.438-1.448-5.463-1.474-7.927-0.073  c-2.462,1.402-3.983,4.018-3.983,6.853v227.088c0,6.006,6.742,9.85,11.911,6.78l134.571-79.901c2.393-1.42,3.859-3.997,3.859-6.78  v-67.285C230.242,108.133,228.776,105.556,226.383,104.136z"></path></g><path style="fill:#FB9D46;" d="M441.035,2.103h-33.643c-4.356,0-7.885,3.53-7.885,7.885v269.142c0,4.355,3.529,7.885,7.885,7.885 h33.643c4.356,0,7.885-3.53,7.885-7.885V9.988C448.92,5.633,445.391,2.103,441.035,2.103z"></path><path style="fill:#FF7452;" d="M399.507,237.076v42.053c0,4.355,3.529,7.885,7.885,7.885h33.643c4.356,0,7.885-3.53,7.885-7.885 v-42.053H399.507z"></path><rect x="399.507" y="60.452" style="fill:#FFD652;" width="49.413" height="42.4"></rect><path style="fill:#FB9D46;" d="M104.608,2.103H70.965c-4.355,0-7.885,3.53-7.885,7.885v269.142c0,4.355,3.53,7.885,7.885,7.885 h33.643c4.355,0,7.885-3.53,7.885-7.885V9.988C112.493,5.633,108.962,2.103,104.608,2.103z"></path><rect x="63.08" y="60.452" style="fill:#FFD652;" width="49.413" height="42.053"></rect><path style="fill:#FF7452;" d="M63.08,237.426v41.703c0,4.355,3.53,7.885,7.885,7.885h33.643c4.355,0,7.885-3.53,7.885-7.885 v-41.703L63.08,237.426L63.08,237.426z"></path><path style="fill:#4C4C4C;" d="M256,396.353c-4.355,0-7.885-3.53-7.885-7.885v-9.462c0-13.044,10.612-23.655,23.655-23.655h136.674 c4.348,0,7.885-3.537,7.885-7.885v-14.719c0-4.348-3.537-7.885-7.885-7.885H271.77c-13.043,0-23.655-10.611-23.655-23.655v-17.873 c0-4.355,3.53-7.885,7.885-7.885c4.356,0,7.885,3.53,7.885,7.885v17.873c0,4.348,3.537,7.885,7.885,7.885h136.674 c13.043,0,23.655,10.611,23.655,23.655v14.719c0,13.044-10.612,23.655-23.655,23.655H271.77c-4.348,0-7.885,3.537-7.885,7.885v9.462 C263.885,392.823,260.356,396.353,256,396.353z"></path><path style="fill:#CCCCCC;" d="M272.821,195.548h-33.643c-4.355,0-7.885,3.53-7.885,7.885v75.696c0,4.355,3.53,7.885,7.885,7.885 h33.643c4.356,0,7.885-3.53,7.885-7.885v-75.696C280.706,199.079,277.177,195.548,272.821,195.548z"></path><path style="fill:#999999;" d="M280.706,203.433c0-4.355-3.529-7.885-7.885-7.885h-33.643c-4.355,0-7.885,3.53-7.885,7.885v25.232 h49.413V203.433z"></path><path style="fill:#FF7452;" d="M290.694,77.799h-69.388c-13.044,0-23.655,10.611-23.655,23.655v86.209 c0,13.044,10.611,23.655,23.655,23.655h69.388c13.043,0,23.655-10.611,23.655-23.655v-86.209 C314.349,88.41,303.737,77.799,290.694,77.799z"></path><circle style="fill:#F7EDBC;" cx="288.591" cy="105.659" r="13.667"></circle><path style="fill:#E24642;" d="M230.768,187.663v-86.209c0-13.044,10.611-23.655,23.655-23.655h-33.117 c-13.044,0-23.655,10.611-23.655,23.655v86.209c0,13.044,10.611,23.655,23.655,23.655h33.117 C241.379,211.318,230.768,200.707,230.768,187.663z"></path><path style="fill:#458FDE;" d="M270.719,380.583h-29.437c-21.74,0-39.425,17.686-39.425,39.425v66.234 c0,13.044,10.611,23.655,23.655,23.655h60.977c13.043,0,23.655-10.611,23.655-23.655v-66.234 C310.144,398.269,292.458,380.583,270.719,380.583z"></path><path style="fill:#4F5AA8;" d="M310.144,442.612v-15.77h-46.259V380.64c0.696-0.037,1.397-0.057,2.103-0.057h-2.103h-15.77h-6.834 c-21.74,0-39.425,17.686-39.425,39.425v6.834v15.77v43.63c0,13.044,10.611,23.655,23.655,23.655h24.706 c-13.044,0-23.655-10.611-23.655-23.655v-43.63H310.144z M226.563,420.008c0-15.307,8.774-28.594,21.552-35.123v41.957h-21.552 V420.008z"></path><g>	<path style="fill:#E24642;" d="M504.115,152.444h-29.437c-4.356,0-7.885-3.53-7.885-7.885c0-4.355,3.529-7.885,7.885-7.885h29.437  c4.356,0,7.885,3.53,7.885,7.885C512,148.913,508.471,152.444,504.115,152.444z"></path>	<path style="fill:#E24642;" d="M474.682,101.979c-2.259,0-4.502-0.965-6.062-2.838c-2.787-3.345-2.336-8.317,1.009-11.105  l25.232-21.027c3.347-2.788,8.318-2.336,11.105,1.009c2.787,3.345,2.336,8.317-1.009,11.105l-25.232,21.027  C478.251,101.38,476.461,101.979,474.682,101.979z"></path>	<path style="fill:#E24642;" d="M499.905,223.934c-1.78,0-3.57-0.599-5.044-1.827l-25.232-21.027  c-3.345-2.788-3.796-7.76-1.009-11.105c2.789-3.345,7.762-3.796,11.105-1.009l25.232,21.027c3.345,2.788,3.796,7.76,1.009,11.105  C504.407,222.968,502.165,223.934,499.905,223.934z"></path>	<path style="fill:#E24642;" d="M37.322,152.444H7.885c-4.355,0-7.885-3.53-7.885-7.885c0-4.355,3.53-7.885,7.885-7.885h29.437  c4.355,0,7.885,3.53,7.885,7.885C45.207,148.913,41.677,152.444,37.322,152.444z"></path>	<path style="fill:#E24642;" d="M37.318,101.979c-1.78,0-3.569-0.599-5.043-1.827L7.043,79.126  c-3.345-2.788-3.797-7.76-1.009-11.105s7.76-3.797,11.105-1.009l25.232,21.027c3.345,2.788,3.797,7.76,1.009,11.105  C41.82,101.013,39.577,101.979,37.318,101.979z"></path>	<path style="fill:#E24642;" d="M12.095,223.934c-2.259,0-4.502-0.965-6.062-2.838c-2.788-3.345-2.336-8.317,1.009-11.105  l25.232-21.027c3.344-2.788,8.317-2.337,11.105,1.009c2.788,3.345,2.336,8.317-1.009,11.105l-25.232,21.027  C15.664,223.335,13.874,223.934,12.095,223.934z"></path></g><g></g><g></g><g></g><g></g><g></g><g></g><g></g><g></g><g></g><g></g><g></g><g></g><g></g><g></g><g></g></svg>