<svg xmlns="http://www.w3.org/2000/svg" xmlns:xlink="http://www.w3.org/1999/xlink" xmlns:v="https://vecta.io/nano" viewBox="0 0 512 512"><g fill="#7c7a75"><path d="M337.03 267.33a8.2 8.2 0 0 1-4.66-1.46l-93.32-64.46a8.2 8.2 0 0 1-.51-13.14l72.3-58.67-59.01-58.02a8.2 8.2 0 1 1 11.52-11.72l65.56 64.46a8.2 8.2 0 0 1-.58 12.24l-70.93 57.55 84.3 58.23a8.2 8.2 0 0 1-4.68 14.98z"></path><path d="M236.78 267.33a8.2 8.2 0 0 1-4.67-14.97l84.3-58.23-70.93-57.55a8.2 8.2 0 0 1-.58-12.24l65.56-64.46a8.2 8.2 0 1 1 11.52 11.72l-59.01 58.01 72.31 58.67a8.2 8.2 0 0 1-.51 13.14l-93.32 64.46c-1.42.98-3.05 1.46-4.66 1.46z"></path></g><path d="M285.92 82.07L266.11 62.6l-2.38 20.7 11.45 11.26-14.36 14.12-4.24 36.91 17.28 14.02-20.83 16.9-3.68 32.03 20.43 14.11 2.12-18.5-14.51-10.02 17.27-14.01 2.09-18.16h0l2.22-19.35-16.01-12.99 19.73-19.4 2.98-25.97h0zm-43.03 182.8l23.95-16.54 2.49-21.68-23.95 16.54z" fill="#6b6861"></path><path d="M133.27 165.53a8.2 8.2 0 0 1-8.21-8.21v-33.35a8.2 8.2 0 1 1 16.43 0v33.35a8.2 8.2 0 0 1-8.21 8.21z" fill="#7c7a75"></path><path d="M190.6 202.85c0 7.26-5.88 13.14-13.14 13.14H87.81c-7.26 0-13.14-5.88-13.14-13.14v-32.39c0-7.26 5.88-13.14 13.14-13.14h89.66c7.26 0 13.14 5.88 13.14 13.14v32.39z" fill="#ccc3a8"></path><path d="M95.66 202.85v-32.39c0-7.26 5.88-13.14 13.14-13.14H87.81c-7.26 0-13.14 5.88-13.14 13.14v32.39c0 7.26 5.88 13.14 13.14 13.14h20.99c-7.26 0-13.14-5.88-13.14-13.14z" fill="#c9b585"></path><path d="M494.75 407.01H17.25c-7.26 0-13.14 5.88-13.14 13.14h0v78.7h0c0 7.26 5.88 13.14 13.14 13.14h477.5c7.26 0 13.14-5.88 13.14-13.14h0v-78.7h0c0-7.26-5.88-13.14-13.14-13.14z" fill="#36a1cb"></path><path d="M494.75 407.01h-24.59H239.8h-24.59c16.46 44.49 48.15 81.59 88.74 104.99h24.59 141.63 24.59c7.26 0 13.14-5.88 13.14-13.14h0v-78.7h0c0-7.26-5.88-13.14-13.14-13.14z" fill="#43b4d6"></path><path d="M362.52 309.8l-4-25.86a5.5 5.5 0 0 0-5.41-4.64H196.08a5.5 5.5 0 0 0-5.47 5.48v25.86a5.5 5.5 0 0 0 5.47 5.48h161.03a5.5 5.5 0 0 0 5.41-6.31z" fill="#ffb92e"></path><path d="M225.12 310.64v-25.86a5.5 5.5 0 0 1 5.48-5.48h-34.52a5.5 5.5 0 0 0-5.47 5.48v25.86a5.5 5.5 0 0 0 5.47 5.48h34.51a5.5 5.5 0 0 1-5.48-5.48z" fill="#ef9a1d"></path><path d="M316.4 366.49h32.85v93.01H316.4zm-241.27 0h32.85v93.01H75.13z" fill="#ccc3a8"></path><path d="M286.9 49.78a8.2 8.2 0 0 1-8.21-8.21V8.21a8.2 8.2 0 1 1 16.43 0v33.35a8.2 8.2 0 0 1-8.21 8.21z" fill="#7c7a75"></path><g fill="#ccc3a8"><path d="M487.76 317.03a8.2 8.2 0 0 1-7.37-4.57l-17.77-35.88a8.2 8.2 0 1 1 14.72-7.29l17.77 35.88a8.2 8.2 0 0 1-7.36 11.86z"></path><path d="M437.92 315.46a8.2 8.2 0 0 1-7.27-12.02l17.52-33.54a8.21 8.21 0 0 1 14.56 7.61l-17.52 33.54a8.2 8.2 0 0 1-7.29 4.41zm24.68-61.83a8.2 8.2 0 0 1-8.21-8.21v-125.3a8.22 8.22 0 1 1 16.43 0v125.31a8.2 8.2 0 0 1-8.21 8.21z"></path></g><path d="M486.33 302.33h-48.59c-7.26 0-13.14 5.88-13.14 13.14v31.82h74.88v-31.82c0-7.26-5.89-13.14-13.14-13.14z" fill="#e35f46"></path><path d="M424.6 358.46c0 7.26 5.88 13.14 13.14 13.14h48.59c7.26 0 13.14-5.88 13.14-13.14v-11.17h-74.88v11.17z" fill="#d64330"></path><g fill="#7c7a75"><path d="M190.1 194.66H75.17c-7.26 0-13.14 5.88-13.14 13.14v87.51 13.14h13.13H190.1h13.14v-13.14-47.46-26.28-13.76c0-7.26-5.88-13.14-13.14-13.14z"></path><use xlink:href="#B"></use><use xlink:href="#B" x="-241.27"></use></g><path d="M273.36 341.3h103.98c9.07 0 16.43-7.36 16.43-16.43s-7.36-16.43-16.43-16.43H273.85h-3.29-11.5-91.99-11.5-3.28H48.8c-9.07 0-16.43 7.36-16.43 16.43s7.36 16.43 16.43 16.43h103.49 93.69" fill="#ccc3a8"></path><path d="M466.36 65.74h12.42 17.38c6.48 0 11.73 5.25 11.73 11.73s-5.25 11.73-11.73 11.73H450.3h-85.7-45.86l-2.53-23.46h123.87" fill="#ffb92e"></path><path d="M316.21 65.74l2.53 23.46h30.4l-2.53-23.46z" fill="#ef9a1d"></path><path d="M375.56 467.72h-92.73a8.22 8.22 0 1 1 0-16.43h92.73a8.22 8.22 0 1 1 0 16.43zm-241.49 0H55.76a8.22 8.22 0 1 1 0-16.43h78.31a8.22 8.22 0 1 1 0 16.43zm277.63 0h-10.22a8.22 8.22 0 1 1 0-16.43h10.22a8.22 8.22 0 1 1 0 16.43z" fill="#8bd8f7"></path><path d="M346.48 270.15l-8.17-75.9c-.02-.37-.05-.73-.12-1.08l-.88-8.19-15.53-144.29a8.2 8.2 0 0 0-8.17-7.33h-53.42a8.2 8.2 0 0 0-8.17 7.33l-24.77 230.08a8.2 8.2 0 0 0 8.17 9.09h102.96.02a8.2 8.2 0 0 0 8.21-8.21 8.5 8.5 0 0 0-.14-1.49zM267.57 49.78h38.67l7.77 72.2h-54.21l7.77-72.2zm-9.54 88.63h57.75l5.17 48.03h-68.09l5.17-48.03zm-13.46 125.02l6.52-60.56h71.63l6.52 60.56h-84.67z" fill="#ccc3a8"></path><path d="M447.18 89.41v9.28 12.67 9.28c0 7.58 6.14 13.73 13.73 13.73h3.37c7.58 0 13.73-6.15 13.73-13.73v-9.28V98.7v-9.28h-30.82 0z" fill="#7c7a75"></path><path d="M462.6 279.85c-11.47 0-20.81-9.33-20.81-20.81s9.33-20.81 20.81-20.81 20.81 9.33 20.81 20.81-9.33 20.81-20.81 20.81zm0-25.19a4.4 4.4 0 0 0-4.38 4.38 4.4 4.4 0 0 0 4.38 4.38 4.4 4.4 0 0 0 4.38-4.38 4.4 4.4 0 0 0-4.38-4.38z" fill="#ffb92e"></path><path d="M458.73 302.33h-20.99c-7.26 0-13.14 5.88-13.14 13.14v31.82h20.99v-31.82c0-7.26 5.88-13.14 13.14-13.14z" fill="#d8422e"></path><path d="M445.59 358.46v-11.17H424.6v11.17c0 7.26 5.88 13.14 13.14 13.14h20.99c-7.26 0-13.14-5.88-13.14-13.14z" fill="#b22b20"></path><path d="M83.02 308.45v-13.14-87.51c0-7.26 5.88-13.14 13.14-13.14H75.17c-7.26 0-13.14 5.88-13.14 13.14v87.51 13.14h13.13 21-13.14zm240.68 49.28c0-9.07 7.36-16.43 16.43-16.43h-20.99c-9.07 0-16.43 7.36-16.43 16.43s7.36 16.43 16.43 16.43h20.99c-9.07 0-16.43-7.36-16.43-16.43zm-241.28 0c0-9.07 7.36-16.43 16.43-16.43H77.86c-9.07 0-16.43 7.36-16.43 16.43s7.36 16.43 16.43 16.43h20.99c-9.07 0-16.43-7.36-16.43-16.43z" fill="#6b6861"></path><path d="M53.36 324.88c0-9.07 7.36-16.43 16.43-16.43H48.8c-9.07 0-16.43 7.36-16.43 16.43s7.36 16.43 16.43 16.43h20.99c-9.07 0-16.43-7.36-16.43-16.43z" fill="#c9b585"></path><path d="M468.18 120.65v-9.28V98.7v-9.28h-20.99v9.28 12.67 9.28c0 7.58 6.14 13.73 13.73 13.73h3.37c3.36 0 6.43-1.21 8.81-3.21a13.7 13.7 0 0 1-4.92-10.52z" fill="#6b6861"></path><path d="M463.24 263.36l-.64.06a4.4 4.4 0 0 1-4.38-4.38 4.4 4.4 0 0 1 4.38-4.38c.22 0 .43.03.64.06 1.23-5.8 4.89-10.7 9.86-13.62-3.08-1.81-6.67-2.87-10.5-2.87-11.47 0-20.81 9.33-20.81 20.81s9.33 20.81 20.81 20.81c3.83 0 7.41-1.06 10.5-2.87-4.97-2.92-8.63-7.82-9.86-13.62z" fill="#ef9a1d"></path><g fill="#96948f"><use xlink:href="#C"></use><use xlink:href="#C" y="27.38"></use><use xlink:href="#C" y="54.76"></use></g><defs><path id="B" d="M302.7 357.73c0-9.07 7.36-16.43 16.43-16.43h27.4c9.07 0 16.43 7.36 16.43 16.43s-7.35 16.43-16.43 16.43h-27.4c-9.07 0-16.43-7.36-16.43-16.43z"></path><path id="C" d="M170 232.33H92.65a8.2 8.2 0 1 1 0-16.43H170a8.2 8.2 0 0 1 0 16.43z"></path></defs></svg>