<svg xmlns="http://www.w3.org/2000/svg" xmlns:xlink="http://www.w3.org/1999/xlink" xmlns:v="https://vecta.io/nano" viewBox="0 0 511.98 511.98"><path d="M93.06 474.57c-11.35 0-21.95-6.09-27.66-15.87l-31.4-53.84c-.95-1.62-1.45-3.48-1.45-5.37V272.86H21.19c-4.82 0-9.04-3.23-10.3-7.87-1.26-4.66.76-9.57 4.92-12L377.86 41.77a32 32 0 0 1 16.09-4.36 32.1 32.1 0 0 1 27.65 15.88l86 147.41c8.91 15.24 3.73 34.87-11.5 43.76L109.16 470.2c-4.9 2.86-10.46 4.38-16.1 4.38z" fill="#da4453"></path><path d="M339.15 117.37c-1.5 5.7 1.91 11.53 7.59 13.03a10.7 10.7 0 0 0 13.03-7.6c1.5-5.69-1.9-11.53-7.59-13.03a10.7 10.7 0 0 0-13.03 7.6zm21.49 36.86a10.7 10.7 0 0 0 7.59 13.03 10.7 10.7 0 0 0 13.03-7.61c1.5-5.69-1.91-11.53-7.59-13.02-5.7-1.5-11.53 1.9-13.03 7.6zm21.5 36.85a10.7 10.7 0 0 0 7.59 13.03c5.7 1.5 11.53-1.91 13.03-7.6 1.5-5.7-1.91-11.53-7.59-13.03-5.7-1.5-11.53 1.91-13.03 7.6zm21.5 36.85a10.7 10.7 0 0 0 7.59 13.03c5.7 1.5 11.53-1.91 13.03-7.6a10.7 10.7 0 0 0-7.59-13.03c-5.7-1.5-11.53 1.91-13.03 7.6z" opacity=".1" fill="#080808"></path><path d="M446 211.55a10.7 10.7 0 0 1-9.23-5.29l-54.31-93.09c-2.97-5.08-1.25-11.62 3.84-14.59a10.7 10.7 0 0 1 14.59 3.84l54.31 93.09c2.97 5.09 1.25 11.62-3.84 14.59a10.6 10.6 0 0 1-5.36 1.45z" fill="#f6bb42"></path><path d="M185.17 251.3c-3.67 0-7.24-1.89-9.23-5.29-2.97-5.09-1.25-11.62 3.84-14.59l128.99-75.25c5.08-2.97 11.61-1.25 14.58 3.84s1.25 11.62-3.83 14.59l-128.99 75.25a10.7 10.7 0 0 1-5.37 1.45zm21.5 36.86c-3.67 0-7.24-1.89-9.23-5.3-2.96-5.09-1.25-11.62 3.84-14.58l128.99-75.26c5.08-2.97 11.61-1.25 14.58 3.84s1.25 11.62-3.83 14.59L212.03 286.7a10.7 10.7 0 0 1-5.37 1.45z" fill="#434a54"></path><path d="M479.98 218.57H74.8l-58.98 34.41c-4.16 2.43-6.18 7.34-4.92 12 1.26 4.65 5.48 7.88 10.3 7.88h11.35v126.62c0 1.89.5 3.75 1.45 5.38l28.22 48.38h76.04l357.86-208.77a32 32 0 0 0 11.05-10.76 32 32 0 0 0-27.17-15.12z" opacity=".1" fill="#080808"></path><path d="M479.98 239.91H32c-17.65 0-32 14.36-32 32v170.67c0 17.64 14.35 32 32 32h447.99c17.65 0 32-14.36 32-32V271.91c0-17.64-14.34-32-32-32z" fill="#ed5564"></path><g fill="#da4453"><use xlink:href="#B"></use><path d="M408.46 328.36c-4.19 4.17-4.19 10.92 0 15.09a10.7 10.7 0 0 0 15.08 0c4.17-4.17 4.17-10.92 0-15.09a10.7 10.7 0 0 0-15.08 0zm0 42.67a10.6 10.6 0 0 0 0 15.08c4.16 4.17 10.91 4.17 15.08 0 4.17-4.16 4.17-10.91 0-15.08s-10.92-4.17-15.08 0z"></path></g><g fill="#e6e9ed"><path d="M144.36 423.83c-4.98 0-9.43-3.5-10.44-8.58l-15.09-75.42c-1.16-5.78 2.59-11.41 8.37-12.56 5.77-1.14 11.4 2.59 12.55 8.38l15.09 75.43c1.16 5.77-2.59 11.39-8.37 12.55a10.9 10.9 0 0 1-2.1.2z"></path><path d="M129.3 348.41c-.69 0-1.4-.08-2.1-.2l-75.43-15.09a10.7 10.7 0 0 1-8.37-12.55c1.16-5.78 6.78-9.52 12.56-8.36l75.42 15.06c5.78 1.16 9.52 6.78 8.37 12.56-1.01 5.06-5.46 8.58-10.44 8.58z"></path></g><use xlink:href="#B" y="128" fill="#da4453"></use><path d="M167 300.02a10.7 10.7 0 0 0-15.09 0l-72.3 72.31H53.87c-5.89 0-10.66 4.78-10.66 10.66 0 5.91 4.77 10.67 10.66 10.67h19.51v19.52c0 5.88 4.77 10.66 10.66 10.66s10.66-4.78 10.66-10.66v-25.75l72.3-72.31a10.7 10.7 0 0 0 0-15.09z" fill="#f5f7fa"></path><path d="M458.64 422.36c-5.87 0-10.66-4.78-10.66-10.67V303.91c0-5.89 4.78-10.67 10.66-10.67a10.7 10.7 0 0 1 10.69 10.67v107.78a10.7 10.7 0 0 1-10.69 10.67z" fill="#ffce54"></path><path d="M213.33 325.24h149.31a10.7 10.7 0 0 0 10.69-10.66c0-5.91-4.78-10.67-10.69-10.67H213.33c-5.89 0-10.67 4.77-10.67 10.67 0 5.88 4.78 10.66 10.67 10.66zm149.31 21.34H213.33c-5.89 0-10.67 4.78-10.67 10.65 0 5.91 4.78 10.67 10.67 10.67h149.31c5.91 0 10.69-4.77 10.69-10.67 0-5.87-4.78-10.65-10.69-10.65zm-63.99 42.65h-85.32a10.7 10.7 0 0 0-10.67 10.67 10.7 10.7 0 0 0 10.67 10.67h85.32a10.7 10.7 0 0 0 10.69-10.67 10.7 10.7 0 0 0-10.69-10.67z" fill="#434a54"></path><defs><path id="B" d="M408.46 285.7a10.6 10.6 0 0 0 0 15.08c4.16 4.17 10.91 4.17 15.08 0s4.17-10.92 0-15.08c-4.17-4.17-10.92-4.17-15.08 0z"></path></defs></svg>