<svg xmlns="http://www.w3.org/2000/svg" xmlns:v="https://vecta.io/nano" viewBox="0 0 512 512"><path d="M311.65 44.52h-111.3c-6.15 0-11.13-4.98-11.13-11.13V11.13C189.22 4.98 194.2 0 200.35 0h111.3c6.15 0 11.13 4.98 11.13 11.13v22.26c0 6.15-4.98 11.13-11.13 11.13z" fill="#c69f75"></path><path d="M456.35 144.7V436c0 5.9-2.35 11.57-6.52 15.74l-53.74 53.74c-4.18 4.18-9.84 6.52-15.74 6.52H131.66c-5.9 0-11.57-2.35-15.74-6.52l-53.74-53.74c-4.17-4.18-6.52-9.84-6.52-15.74V144.7c0-12.29 9.97-22.26 22.26-22.26h77.91V26.87c0-2.95 1.17-5.78 3.26-7.87l15.74-15.74C176.91 1.17 179.75 0 182.7 0h6.52v122.44h122.44V0h17.65c2.95 0 5.78 1.17 7.87 3.26L352.91 19c2.09 2.09 3.26 4.92 3.26 7.87v95.56h77.91c12.29 0 22.26 9.97 22.26 22.26z" fill="#efddab"></path><path d="M256 512H131.66c-5.9 0-11.57-2.35-15.74-6.52l-53.74-53.74c-4.17-4.18-6.52-9.84-6.52-15.74V144.7c0-12.29 9.97-22.26 22.26-22.26h77.91V26.87c0-2.95 1.17-5.78 3.26-7.87l15.74-15.74C176.91 1.17 179.75 0 182.7 0h17.65v122.44H256V512z" fill="#dbcba1"></path><path d="M264.35 311.65v77.91c0 4.61-3.74 8.35-8.35 8.35s-8.35-3.74-8.35-8.35v-77.91c0-4.61 3.74-8.35 8.35-8.35s8.35 3.74 8.35 8.35z" fill="#6baf6e"></path><path d="M256 317.22v-16.7a66.8 66.8 0 0 1 66.78-66.78h22.26V256a66.8 66.8 0 0 1-66.78 66.78h-16.7c-3.07 0-5.56-2.49-5.56-5.57z" fill="#91f18b"></path><path d="M256 322.78h-22.26A66.8 66.8 0 0 1 166.96 256v-22.26h22.26A66.8 66.8 0 0 1 256 300.52v22.26z" fill="#6baf6e"></path></svg>