<svg xmlns="http://www.w3.org/2000/svg" xmlns:xlink="http://www.w3.org/1999/xlink" xmlns:v="https://vecta.io/nano" viewBox="0 0 512 512"><path d="M328.05 185.71h75.76v40.61h-75.76z" fill="#cfdce5"></path><path d="M170.83 57.97L179.48 0l8.65 57.97c.71 4.78-2.58 9.23-7.36 9.94s-9.23-2.58-9.94-7.36c-.13-.87-.12-1.76 0-2.58z" fill="#415e72"></path><g fill="#cfdce5"><path d="M237.27 112.17H121.7V71.67l57.78-31.18 57.78 31.18z"></path><path d="M109.52 97.71h139.93v85.96H109.52z"></path></g><path d="M109.52 159.1h139.93v24.56H109.52z" fill="#bac6cc"></path><g fill="#415e72"><use xlink:href="#B"></use><use xlink:href="#B" x="68.03"></use><use xlink:href="#B" x="34.01"></use></g><path d="M328.05 202.56h75.76v20.31h-75.76z" fill="#bac6cc"></path><path d="M267.12 512V172.97H91.84V512m328.32 0V212.6H310.94V512" fill="#cfdce5"></path><g fill="#415e72"><use xlink:href="#C"></use><use xlink:href="#C" x="29.75"></use><use xlink:href="#C" x="119.01"></use><use xlink:href="#C" x="89.25"></use><use xlink:href="#C" x="59.5"></use><use xlink:href="#C" y="102.63"></use><use xlink:href="#C" x="29.75" y="102.63"></use><use xlink:href="#C" x="119.01" y="102.63"></use><use xlink:href="#C" x="89.25" y="102.63"></use><use xlink:href="#C" x="59.5" y="102.63"></use><use xlink:href="#C" y="205.26"></use><use xlink:href="#C" x="29.75" y="205.26"></use><use xlink:href="#C" x="119.01" y="205.26"></use><use xlink:href="#C" x="89.25" y="205.26"></use><use xlink:href="#C" x="59.5" y="205.26"></use><use xlink:href="#C" y="256.58"></use><use xlink:href="#C" x="29.75" y="256.58"></use><use xlink:href="#C" x="119.01" y="256.58"></use><use xlink:href="#C" x="89.25" y="256.58"></use><use xlink:href="#C" x="59.5" y="256.58"></use><use xlink:href="#C" y="51.32"></use><use xlink:href="#C" x="29.75" y="51.32"></use><use xlink:href="#C" x="119.01" y="51.32"></use><use xlink:href="#C" x="89.25" y="51.32"></use><use xlink:href="#C" x="59.5" y="51.32"></use><use xlink:href="#C" y="153.95"></use><use xlink:href="#C" x="29.75" y="153.95"></use><use xlink:href="#C" x="119.01" y="153.95"></use><use xlink:href="#C" x="89.25" y="153.95"></use><use xlink:href="#C" x="59.5" y="153.95"></use><use xlink:href="#D"></use><use xlink:href="#D" y="32.83"></use><use xlink:href="#D" y="65.65"></use><use xlink:href="#D" y="98.47"></use><use xlink:href="#D" y="131.29"></use><use xlink:href="#D" y="164.11"></use><use xlink:href="#D" y="196.93"></use><use xlink:href="#D" y="229.76"></use></g><path d="M121.69 85.64h115.57v12.06H121.69z" fill="#bac6cc"></path><path d="M361.32 138.69h9.23v47.02h-9.23z" fill="#415e72"></path><defs><path id="B" d="M145.47 181.62c-4.78 0-8.65-3.87-8.65-8.65v-43.82c0-4.78 3.87-8.65 8.65-8.65s8.65 3.87 8.65 8.65v43.82c0 4.78-3.87 8.65-8.65 8.65z"></path><path id="C" d="M119.98 228.9c-3.5 0-6.34-2.84-6.34-6.34v-18.45c0-3.5 2.84-6.34 6.34-6.34s6.34 2.84 6.34 6.34v18.45c0 3.5-2.84 6.34-6.34 6.34z"></path><path id="D" d="M310.94 240.5h109.21v13.84H310.94z"></path></defs></svg>