<svg xmlns="http://www.w3.org/2000/svg" xmlns:xlink="http://www.w3.org/1999/xlink" xmlns:v="https://vecta.io/nano" viewBox="0 0 417.98 417.98"><path d="M224.6 45.07h140.96v48.29H224.6z" fill="#fcf4de"></path><path d="M399.72 306.42v33.69a23.6 23.6 0 0 1-23.57 23.57H138.14v-35.3h17.61 222.01c12.13 0 21.96-9.83 21.96-21.96z" fill="#51b7a6"></path><path d="M399.72 284.92v21.5c0 12.13-9.83 21.96-21.96 21.96H155.75a34.7 34.7 0 0 0 34.71-34.7v-27.71h-.05c.03-.58.05-1.17.05-1.76V32.7c0-17.86-14.48-32.34-32.34-32.34V0h219.64c12.13 0 21.96 9.83 21.96 21.97v262.95zm-29.98-3.94v-32.07h-32.08v32.07h32.08zm0-59.02v-32.08h-32.08v32.08h32.08zm0-59.03v-32.08h-32.08v32.08h32.08zm-4.17-69.57V45.07h-32.61-33.16-75.19v48.29h47.28 33.17 60.51zm-54.44 187.62v-32.07h-32.08v32.07h32.08zm0-59.02v-32.08h-32.08v32.08h32.08zm0-59.03v-32.08h-32.08v32.08h32.08zm-58.61 118.05v-32.07h-32.08v32.07h32.08zm0-59.02v-32.08h-32.08v32.08h32.08zm0-59.03v-32.08h-32.08v32.08h32.08z" fill="#88c9b3"></path><path d="M138.14 328.38h-17.61a34.7 34.7 0 0 1-34.71-34.7v-27.71h.05c.91 17.04 15.02 30.58 32.29 30.58h39.96c17.27 0 31.38-13.54 32.29-30.58h.05v27.71a34.7 34.7 0 0 1-34.71 34.7h-17.61z" fill="#c65c05"></path><path d="M190.46 32.7v231.51l-.05 1.76c-.91 17.04-15.02 30.58-32.29 30.58h-39.96c-17.27 0-31.38-13.54-32.29-30.58-.03-.58-.05-1.17-.05-1.76V32.7C85.82 14.84 100.3.36 118.16.36h39.96c17.86 0 32.34 14.48 32.34 32.34z" fill="#e77200"></path><path d="M158.12 0v.36h-39.96C100.3.36 85.82 14.84 85.82 32.7v231.51c0 .59.02 1.18.05 1.76h-.05v27.71a34.7 34.7 0 0 0 34.71 34.7H82.04c-12.14 0-21.97-9.83-21.97-21.96v-21.5V55.61 21.97C60.07 9.83 69.9 0 82.04 0h76.08z" fill="#88c9b3"></path><path d="M138.14 328.38v35.3h-54.5a23.6 23.6 0 0 1-23.57-23.57v-33.69c0 12.13 9.83 21.96 21.97 21.96h38.49 17.61z" fill="#51b7a6"></path><path d="M103.84 417.98H60.07a41.8 41.8 0 0 1-41.8-41.8V89.91c0-23.05 18.75-41.8 41.8-41.8v15c-14.78 0-26.8 12.02-26.8 26.8v286.28a26.8 26.8 0 0 0 26.8 26.8h43.77a26.8 26.8 0 0 0 26.8-26.8v-55.18a7.5 7.5 0 0 1 7.5-7.5h0a7.5 7.5 0 0 1 7.5 7.5v55.17a41.8 41.8 0 0 1-41.8 41.8z" fill="#88c9b3"></path><path d="M234.6 55.07h120.96v28.29H234.6z" fill="#e77200"></path><g fill="#665040"><path d="M337.65 256.91h32.08v32.07h-32.08z"></path><use xlink:href="#B"></use><use xlink:href="#B" y="-59.03"></use><path d="M279.05 256.91h32.08v32.07h-32.08z"></path><use xlink:href="#B" x="-58.6"></use><use xlink:href="#B" x="-58.6" y="-59.03"></use><path d="M220.43 256.91h32.08v32.07h-32.08z"></path><use xlink:href="#B" x="-117.22"></use><use xlink:href="#B" x="-117.22" y="-59.03"></use></g><g fill="#7c6655"><path d="M337.65 248.91h32.08v32.07h-32.08z"></path><use xlink:href="#B" y="-8"></use><use xlink:href="#B" y="-67.03"></use><path d="M279.05 248.91h32.08v32.07h-32.08z"></path><use xlink:href="#B" x="-58.6" y="-8"></use><use xlink:href="#B" x="-58.6" y="-67.03"></use><path d="M220.43 248.91h32.08v32.07h-32.08z"></path><use xlink:href="#B" x="-117.22" y="-8"></use><use xlink:href="#B" x="-117.22" y="-67.03"></use></g><path d="M332.96 45.07l-27.9 48.29h-33.17l27.91-48.29z" fill="#fcf4de"></path><defs><path id="B" d="M337.65 197.88h32.08v32.08h-32.08z"></path></defs></svg>